# xmcd
#
# Track frame offsets: 
#        150
#        9120
#        20852
#        34440
#        44830
#        56532
#        65532
#        78390
#        87840
#        97762
#        108867
#        118360
#        130700
#        142192
#        151780
#        162060
#        171415
#        180612
#        191490
#        202557
#        211822
#        223360
#        235492
#        246057
#        254210
#        266390
#        278342
#        290227
#
# Disc length: 4012 seconds
#
# Revision: 6
# Processed by: cddbd v1.5.2PL0 Copyright (c) Steve Scherf et al.
# Submitted via: ExactAudioCopy v1.1
#
DISCID=990faa1c
DTITLE=Webb Pierce - The Wondering Boy 1951-1958 - Disc 4
DYEAR=1990
DGENRE=Country
TTITLE0=New Panhandle Rag (mono)
TTITLE1=I Know It Was You (mono)
TTITLE2=Don't Do It Darlin' (mono)
TTITLE3=Holiday For Love (mono)
TTITLE4=How Long (mono)
TTITLE5=The New Raunchy (mono)
TTITLE6=I'll Get By Somehow (mono)
TTITLE7=English Sweetheart (mono)
TTITLE8=Down Panama Way (mono)
TTITLE9=Foreign Love (mono)
TTITLE10=You'll Come Back (mono)
TTITLE11=A New Love Affair (mono)
TTITLE12=Falling Back To You (mono)
TTITLE13=Sittin' Alone (mono)
TTITLE14=I'm Letting You Go (mono)
TTITLE15=Tupelo County Jail (mono)
TTITLE16=Waiting A Lifetime (mono)
TTITLE17=True Love Never Dies (mono)
TTITLE18=I Think Of You (mono)
TTITLE19=I Won't Be Cryin' Anymore (mono)
TTITLE20=I Owe It To My Heart (mono)
TTITLE21=The Violet And The Rose (mono)
TTITLE22=After The Boy Gets The Girl (mono)
TTITLE23=You Make Me Live Again (mono)
TTITLE24=Crazy Arms (mono)
TTITLE25=Pick Me Up On Your Way Down (mono)
TTITLE26=Life To Go (mono)
TTITLE27=My Shoes Keep Walking Back To You (mono)
EXTD=The Wondering "Boy" 1951-1958 - Disc 4 of 4\n© 1990 Bear Family R
EXTD=ecords\n\nUPC: 4000127155221\nCat Number: BCD 15522 DH\n\nOrigina
EXTD=lly Released September 15, 1990\n\n\nAMG EXPERT REVIEW:  \nFor th
EXTD=e devout, Germany's Bear Family offers a 4-CD boxed set of Pierce
EXTD='s primal honky tonk, a total of 113 songs by one of the seminal 
EXTD=post-war country artists, including duets with Kitty Wells, Red S
EXTD=ovine, and the Wilburn Brothers. This is the best sound quality a
EXTD=nd presentation available of this influential music.  -- Mark A. 
EXTD=Humphrey\n\nAmazon.com Editorial Review: \n(4-CD LP-sized box set
EXTD=with 36-page book) Webb Pierce is one of the neglected giants of
EXTD=post-War country music. No-one sold more records in the '50s, ye
EXTD=t those classic cuts were never available on CD until this set. H
EXTD=ere they are again... Back Street Affair, More And More, I Don't 
EXTD=Care, There Stands The Glass, In The Jailhouse Now, Honky Tonk So
EXTD=ng, Any Old Time, Teenage Boogie, Slowly, Honky Tonk Song, I'm Wa
EXTD=lking The Dog...they're all here. 113 performances - an incredibl
EXTD=e 40 of them were hits!
EXTT0=
EXTT1=
EXTT2=
EXTT3=
EXTT4=
EXTT5=
EXTT6=
EXTT7=
EXTT8=
EXTT9=
EXTT10=
EXTT11=
EXTT12=
EXTT13=
EXTT14=
EXTT15=
EXTT16=
EXTT17=
EXTT18=
EXTT19=
EXTT20=
EXTT21=
EXTT22=
EXTT23=
EXTT24=
EXTT25=
EXTT26=
EXTT27=
PLAYORDER=
